<?xml version="1.0" standalone="no"?>
<!DOCTYPE svg PUBLIC "-//W3C//DTD SVG 20010904//EN"
 "http://www.w3.org/TR/2001/REC-SVG-20010904/DTD/svg10.dtd">
<svg version="1.0" xmlns="http://www.w3.org/2000/svg"
 width="773.000000pt" height="710.000000pt" viewBox="0 0 773.000000 710.000000"
 preserveAspectRatio="xMidYMid meet">

<g transform="translate(0.000000,710.000000) scale(0.100000,-0.100000)"
fill="#000000" stroke="none">
<path d="M3812 6788 c-5 -7 -515 -897 -1133 -1978 -891 -1558 -1124 -1972
-1124 -2000 0 -27 6 -37 25 -47 20 -10 466 -13 2255 -12 1227 0 2247 3 2269 7
50 9 61 35 37 88 -35 78 -2224 3900 -2249 3927 -27 29 -63 35 -80 15z m591
-1109 c296 -519 780 -1364 1074 -1878 294 -513 532 -935 530 -937 -2 -2 -974
-3 -2160 -2 l-2157 3 1076 1883 c592 1036 1081 1881 1087 1879 6 -2 253 -428
550 -948z"/>
<path d="M3797 6053 c-50 -79 -1629 -2846 -1638 -2870 -7 -19 -6 -32 6 -49
l15 -24 1668 0 c1800 0 1711 -3 1700 51 -4 22 -1554 2749 -1635 2877 -28 44
-37 52 -63 52 -24 0 -35 -8 -53 -37z m835 -1483 c422 -739 768 -1348 768
-1352 0 -4 -698 -8 -1551 -8 -1322 0 -1550 2 -1546 14 3 8 328 578 723 1267
395 690 740 1293 768 1342 27 48 54 86 60 84 5 -2 356 -608 778 -1347z"/>
<path d="M3818 5368 c-23 -18 -1047 -1812 -1054 -1846 -4 -19 0 -34 11 -45 15
-16 100 -17 1059 -17 574 0 1058 3 1076 6 31 7 32 9 27 45 -3 26 -163 315
-503 911 -274 480 -510 892 -526 916 -30 44 -59 54 -90 30z m506 -972 c256
-447 466 -818 466 -825 0 -13 -1865 -16 -1874 -3 -6 10 924 1642 935 1642 4 0
217 -366 473 -814z"/>
<path d="M3796 4633 c-13 -21 -114 -196 -225 -390 -208 -364 -224 -400 -181
-423 13 -7 165 -10 470 -8 405 3 451 5 466 20 16 15 16 19 0 57 -17 44 -356
642 -412 729 -29 43 -39 52 -64 52 -23 0 -35 -8 -54 -37z m228 -417 c92 -159
165 -290 163 -292 -2 -2 -152 -7 -335 -10 -300 -7 -332 -6 -332 9 0 8 68 134
151 279 167 291 179 311 184 306 2 -1 78 -133 169 -292z"/>
<path d="M5453 2359 c-219 -28 -364 -204 -365 -444 -2 -260 175 -445 426 -445
275 0 463 204 442 480 -20 277 -227 445 -503 409z m168 -125 c96 -27 173 -107
197 -204 28 -112 20 -204 -22 -289 -55 -106 -186 -172 -312 -156 -72 9 -166
57 -203 104 -69 87 -94 243 -56 351 58 165 219 243 396 194z"/>
<path d="M7124 2353 l-50 -4 -120 -310 c-120 -314 -130 -337 -137 -329 -2 3
-57 147 -123 320 l-120 315 -87 3 c-55 2 -87 -1 -87 -8 0 -23 -60 -798 -64
-827 l-5 -33 63 0 64 0 6 63 c3 34 15 179 27 322 11 143 24 268 27 278 5 11
51 -98 136 -323 l129 -341 40 3 40 3 131 342 c71 188 132 341 133 339 2 -2 15
-147 29 -322 14 -175 27 -329 30 -341 4 -21 10 -23 65 -23 l61 0 -6 63 c-3 34
-17 217 -31 407 -14 190 -28 360 -31 378 -5 35 3 33 -120 25z"/>
<path d="M390 1915 l0 -435 65 0 65 0 0 190 0 190 155 0 155 0 0 55 0 55 -155
0 -155 0 0 135 0 135 175 0 175 0 0 55 0 55 -240 0 -240 0 0 -435z"/>
<path d="M1260 1915 l0 -435 60 0 60 0 0 195 0 195 63 0 62 0 110 -193 110
-192 73 -3 c39 -2 72 -1 72 2 0 3 -54 91 -120 197 -67 105 -119 192 -118 193
66 28 127 68 145 95 68 102 49 258 -40 325 -63 48 -105 56 -298 56 l-179 0 0
-435z m368 312 c101 -54 93 -210 -13 -245 -22 -7 -84 -16 -137 -19 l-98 -6 0
148 0 147 108 -4 c76 -3 116 -9 140 -21z"/>
<path d="M2260 1915 l0 -435 238 2 237 3 0 50 0 50 -172 3 -173 2 0 135 0 135
150 0 150 0 1 28 c1 15 2 38 3 52 l1 25 -152 3 -153 3 0 134 0 135 173 2 172
3 0 50 0 50 -237 3 -238 2 0 -435z"/>
<path d="M3150 1915 l0 -435 235 0 235 0 0 55 0 55 -170 0 -170 0 0 135 0 135
150 0 150 0 0 55 0 55 -150 0 -150 0 0 135 0 135 170 0 170 0 0 55 0 55 -235
0 -235 0 0 -435z"/>
<path d="M4040 1914 l0 -436 198 4 c232 5 276 17 365 98 92 84 134 210 124
375 -9 149 -64 264 -160 328 -84 57 -135 67 -344 67 l-183 0 0 -436z m384 315
c52 -15 119 -79 147 -142 20 -44 24 -68 24 -162 0 -131 -15 -189 -62 -245 -59
-69 -99 -83 -245 -88 l-128 -4 0 324 c0 179 3 328 8 333 9 10 206 -2 256 -16z"/>
<path d="M1699 1248 c-159 -56 -253 -184 -266 -363 -14 -189 70 -345 225 -418
64 -30 73 -32 187 -32 111 0 124 2 176 28 71 34 137 92 167 145 l23 41 -47 20
c-26 12 -48 21 -51 21 -2 0 -29 -27 -61 -59 -45 -46 -70 -63 -112 -75 -204
-61 -374 57 -388 270 -9 139 45 245 153 299 51 25 72 30 136 30 64 0 84 -4
134 -30 38 -19 70 -45 90 -72 34 -48 50 -51 106 -23 l40 21 -18 31 c-34 57
-103 119 -170 150 -56 27 -80 32 -162 35 -81 3 -106 0 -162 -19z"/>
<path d="M625 1078 c-37 -101 -105 -284 -151 -407 -46 -123 -82 -227 -79 -229
3 -3 30 -7 60 -10 50 -4 55 -3 63 19 5 13 21 59 36 102 l28 77 182 0 181 0 35
-97 35 -98 49 -3 c27 -2 54 -1 61 2 9 3 -30 121 -136 405 -81 221 -151 406
-154 411 -3 6 -37 10 -74 10 l-69 0 -67 -182z m212 -134 c35 -98 66 -187 69
-196 5 -17 -6 -18 -144 -18 l-149 0 71 200 c39 110 75 198 81 197 5 -2 38 -84
72 -183z"/>
<path d="M2721 1087 c-174 -469 -238 -647 -233 -652 8 -8 95 -6 108 3 7 4 26
49 44 100 l33 92 182 0 182 0 35 -97 35 -98 56 -3 c45 -2 57 0 57 12 0 8 -66
195 -147 415 l-146 401 -71 0 -71 0 -64 -173z m213 -155 c36 -100 66 -187 66
-192 0 -6 -58 -10 -145 -10 -80 0 -145 2 -145 4 0 2 32 93 70 202 39 109 70
201 70 204 1 14 24 -41 84 -208z"/>
<path d="M3580 848 l0 -413 98 -3 c144 -3 286 14 348 42 138 63 217 228 201
420 -12 138 -66 243 -157 305 -71 48 -141 61 -327 61 l-163 0 0 -412z m378
287 c63 -26 116 -92 137 -170 25 -92 17 -216 -20 -290 -48 -100 -123 -135
-287 -135 l-98 0 0 303 c0 167 3 307 8 311 13 15 214 0 260 -19z"/>
<path d="M4622 848 l3 -413 220 0 220 0 3 52 3 53 -165 0 -166 0 0 125 0 125
145 0 145 0 0 55 0 55 -145 0 -145 0 0 125 0 125 163 2 162 3 3 53 3 52 -226
0 -225 0 2 -412z"/>
<path d="M5486 1248 c-3 -7 -16 -182 -31 -388 -14 -206 -28 -385 -30 -397 -5
-19 0 -22 50 -28 31 -4 58 -6 60 -3 2 2 17 149 32 326 15 177 30 319 34 314 4
-4 60 -148 125 -320 105 -279 121 -313 142 -319 14 -3 31 -2 39 3 8 5 69 152
136 328 83 218 123 312 128 300 4 -11 17 -154 29 -319 14 -185 27 -303 34
-308 10 -7 94 -2 103 6 1 2 -11 178 -27 391 -17 214 -30 397 -30 407 0 17 -8
19 -79 19 l-79 0 -26 -62 c-14 -35 -66 -169 -115 -298 -49 -129 -93 -236 -98
-237 -4 -2 -60 132 -123 297 l-115 300 -78 0 c-53 0 -79 -4 -81 -12z"/>
<path d="M6660 1251 c0 -6 57 -101 128 -213 l127 -203 5 -200 5 -200 55 0 55
0 5 201 5 200 125 199 c69 109 129 204 133 212 6 10 -6 13 -60 13 l-68 0 -54
-93 c-30 -50 -75 -123 -99 -160 l-44 -69 -63 104 c-35 56 -79 129 -99 161
l-35 57 -61 0 c-33 0 -60 -4 -60 -9z"/>
</g>
</svg>
