<?xml version="1.0" standalone="no"?>
<!DOCTYPE svg PUBLIC "-//W3C//DTD SVG 20010904//EN"
 "http://www.w3.org/TR/2001/REC-SVG-20010904/DTD/svg10.dtd">
<svg version="1.0" xmlns="http://www.w3.org/2000/svg"
 width="516.000000pt" height="516.000000pt" viewBox="0 0 516.000000 516.000000"
 preserveAspectRatio="xMidYMid meet">
<metadata>
Created by potrace 1.14, written by Peter Selinger 2001-2017
</metadata>
<g transform="translate(0.000000,516.000000) scale(0.100000,-0.100000)"
fill="#000000" stroke="none">
<path d="M2592 4343 c-10 -16 -304 -527 -652 -1136 -515 -900 -632 -1112 -623
-1125 9 -16 105 -17 1294 -20 706 -1 1294 0 1307 3 17 4 22 12 20 29 -2 13
-293 530 -647 1150 -472 825 -649 1126 -662 1126 -10 0 -26 -12 -37 -27z m648
-1133 c332 -580 605 -1063 608 -1072 4 -17 -59 -18 -1222 -18 -811 0 -1226 3
-1226 10 0 20 1223 2151 1231 2143 4 -4 278 -483 609 -1063z"/>
<path d="M2596 3948 c-76 -120 -936 -1642 -936 -1657 0 -11 9 -21 23 -25 12
-3 441 -6 954 -6 1037 0 981 -4 946 63 -27 53 -893 1569 -919 1610 -28 42 -47
47 -68 15z m485 -866 c235 -411 425 -750 422 -754 -5 -9 -1747 -11 -1755 -2
-3 3 192 352 435 776 420 736 441 771 455 749 8 -12 207 -358 443 -769z"/>
<path d="M2586 3523 c-82 -128 -586 -1028 -582 -1039 5 -12 104 -14 621 -14
544 0 616 2 622 15 3 10 -112 222 -297 545 -227 398 -308 530 -321 530 -11 0
-29 -17 -43 -37z m312 -525 c144 -254 261 -463 259 -465 -2 -2 -243 -2 -535
-1 l-532 3 251 440 c280 490 277 485 287 485 4 -1 125 -208 270 -462z"/>
<path d="M2596 3138 c-69 -110 -246 -435 -244 -447 3 -14 35 -16 273 -16 249
0 270 1 273 18 3 15 -187 362 -240 440 -23 33 -43 34 -62 5z m133 -250 l90
-158 -190 0 c-104 0 -189 3 -189 6 0 19 184 324 190 317 5 -4 49 -79 99 -165z"/>
<path d="M3510 1831 c-49 -16 -87 -40 -117 -75 -83 -94 -77 -271 13 -359 51
-51 82 -62 174 -62 74 0 91 3 131 27 81 48 125 139 117 242 -8 97 -53 167
-133 208 -43 22 -144 33 -185 19z m159 -81 c105 -53 122 -237 30 -314 -81 -68
-208 -53 -264 32 -66 100 -27 250 75 291 42 17 118 13 159 -9z"/>
<path d="M652 1583 l3 -248 30 0 30 0 3 107 3 107 87 3 c86 3 87 3 90 30 l3
27 -88 3 -88 3 -3 78 -3 77 101 0 100 0 0 30 0 30 -135 0 -135 0 2 -247z"/>
<path d="M1144 1817 c-2 -7 -3 -118 -2 -247 l3 -235 30 0 30 0 5 110 5 110 35
0 c33 0 37 -4 79 -75 84 -145 89 -150 121 -150 16 0 31 4 34 8 3 4 -24 54 -60
111 -61 98 -69 121 -39 121 7 0 27 16 44 35 26 30 31 44 31 89 0 59 -21 96
-70 121 -38 20 -238 21 -246 2z m218 -61 c25 -19 39 -62 29 -89 -15 -40 -38
-50 -109 -51 l-67 -1 -3 64 c-2 35 -1 70 2 77 7 18 124 18 148 0z"/>
<path d="M1720 1580 l0 -251 133 3 132 3 0 30 0 30 -97 3 -98 3 0 74 0 75 85
0 85 0 0 30 0 30 -85 0 -85 0 0 80 0 79 98 3 97 3 3 28 3 27 -135 0 -136 0 0
-250z"/>
<path d="M2225 1818 c-3 -8 -4 -119 -3 -248 l3 -235 135 0 135 0 0 30 0 30
-97 3 -98 3 0 74 0 75 85 0 85 0 0 30 0 30 -85 0 -85 0 0 80 0 79 98 3 c96 3
97 3 97 28 l0 25 -133 3 c-101 2 -134 0 -137 -10z"/>
<path d="M2732 1584 l3 -249 105 1 c115 0 165 12 211 51 53 45 73 97 74 193 0
105 -27 168 -94 215 -41 29 -47 30 -172 34 l-129 3 2 -248z m255 160 c44 -32
66 -87 66 -163 0 -72 -15 -111 -58 -151 -23 -22 -37 -25 -111 -29 l-84 -3 0
179 c0 99 3 183 8 187 4 4 39 6 79 4 53 -2 80 -9 100 -24z"/>
<path d="M4086 1818 c-5 -14 -36 -426 -36 -466 0 -20 4 -23 33 -20 l32 3 16
187 c8 104 18 190 21 193 3 3 36 -75 73 -174 73 -195 84 -217 107 -209 8 4 48
92 88 197 40 105 75 189 77 187 3 -2 11 -85 19 -183 8 -98 17 -184 19 -190 5
-15 51 -17 60 -3 6 9 -21 422 -31 468 -4 21 -9 23 -52 20 l-47 -3 -66 -175
c-37 -96 -70 -175 -75 -175 -4 0 -37 79 -74 175 l-67 175 -47 3 c-31 2 -48 -1
-50 -10z"/>
<path d="M823 1198 c-6 -7 -45 -105 -86 -218 -42 -113 -79 -213 -82 -222 -6
-15 -1 -18 28 -18 33 0 36 3 53 53 l19 52 99 3 c58 2 103 -2 111 -8 7 -6 18
-31 25 -55 12 -42 15 -45 46 -45 19 0 34 3 34 8 -1 4 -38 108 -84 232 l-83
225 -35 3 c-20 2 -39 -3 -45 -10z m81 -173 c21 -58 34 -109 31 -115 -8 -12
-142 -13 -149 -1 -6 9 66 221 75 221 4 0 23 -47 43 -105z"/>
<path d="M1375 1191 c-81 -37 -129 -118 -129 -221 0 -75 18 -122 66 -169 93
-94 259 -89 342 9 33 39 33 47 0 62 -24 11 -28 10 -46 -15 -28 -38 -71 -58
-127 -59 -108 -3 -176 73 -169 189 6 98 58 153 151 161 60 5 100 -11 141 -54
19 -21 30 -25 50 -20 32 8 33 20 1 62 -54 70 -188 97 -280 55z"/>
<path d="M2016 1202 c-9 -14 -166 -445 -166 -454 0 -5 15 -8 32 -6 30 3 35 8
52 56 l19 53 105 -3 104 -3 20 -52 c17 -47 23 -53 49 -53 16 0 29 5 29 13 0
16 -151 429 -163 445 -11 13 -73 17 -81 4z m87 -189 c20 -55 33 -104 30 -107
-4 -3 -39 -6 -80 -6 -56 0 -73 3 -73 14 0 28 73 217 81 209 4 -4 23 -54 42
-110z"/>
<path d="M2478 1204 c-5 -4 -8 -110 -8 -236 l0 -228 103 0 c153 1 200 23 243
115 26 55 32 142 13 208 -12 44 -59 101 -103 124 -33 18 -235 32 -248 17z
m212 -72 c57 -28 80 -73 80 -154 0 -127 -49 -178 -169 -178 l-61 0 0 175 0
175 58 0 c34 0 71 -7 92 -18z"/>
<path d="M3070 975 l0 -235 126 0 125 0 -3 28 -3 27 -92 3 -93 3 0 69 0 69 83
3 c81 3 82 3 85 30 l3 27 -83 3 -83 3 0 70 0 70 93 3 93 3 -3 27 -3 27 -122 3
-123 3 0 -236z"/>
<path d="M3565 1198 c-5 -14 -35 -385 -35 -431 0 -23 4 -27 29 -27 34 0 31
-11 52 230 6 69 12 127 15 129 2 2 9 -9 14 -25 6 -16 37 -96 68 -179 78 -204
81 -204 155 -8 31 81 62 163 68 180 14 41 29 33 29 -15 0 -20 5 -98 12 -174
l11 -138 34 0 34 0 -5 43 c-3 23 -10 110 -16 192 -6 83 -13 169 -16 193 -5 41
-6 42 -43 42 -21 0 -43 -6 -48 -12 -6 -7 -37 -84 -69 -170 -33 -87 -63 -157
-67 -155 -5 1 -37 77 -71 167 l-63 165 -42 3 c-27 2 -43 -1 -46 -10z"/>
<path d="M4238 1204 c-4 -3 27 -59 68 -123 l74 -118 0 -112 0 -111 35 0 35 0
0 115 0 114 70 110 c39 61 70 115 70 121 0 7 -13 10 -32 8 -28 -3 -38 -13 -86
-90 -30 -49 -58 -86 -62 -83 -5 3 -32 44 -60 90 -45 74 -55 85 -79 85 -15 0
-30 -3 -33 -6z"/>
</g>
</svg>
