<svg id="Layer_1" data-name="Layer 1" xmlns="http://www.w3.org/2000/svg" viewBox="0 0 4788.48 1965.13"><defs><style>.cls-1{fill:#231f20;}</style></defs><path class="cls-1" d="M3161.22,1370.36c131.57-150,266.55-288.94,426.75-398.77,451.75-309.72,1087.37-310.93,1513.32,50.08,457.82,388,457.84,1023.38,0,1411.4-224.7,190.45-518,283.13-810,275.93-614.81-15.2-925.8-381.88-1263.07-779.55-60.32-71.13-119.26-143.5-179.68-214.75-293.12-345.62-563.39-664.29-1046.07-676.22-401.64-9.82-864.36,261-853.28,703,4.43,179.11,95.11,345.25,239.62,467.72,320.77,271.88,806.15,268.42,1148.77,38.56,149.66-100.41,280.51-239.63,411.27-390.76,20.51,24.39,41,48.83,61.92,72.73,42.77,52.25,85,103.28,128.64,154.6-134.78,153.64-273.2,295.7-438.81,406.8-451.14,302.68-1080.39,298.61-1501.22-58.06-206.59-175.09-336.34-418-342.93-684.71C641,1133.7,1236.52,731.62,1809.39,745.73c614.8,15.21,925.78,381.87,1263,779.55,60.43,71.25,119.41,143.65,179.69,214.74,293.13,345.62,563.4,664.31,1046.08,676.24,219.68,5.38,444.22-63.45,613.66-207.06,319.36-270.66,319.36-693,0-963.67-324.94-275.4-815.75-266.73-1158.57-31.7-145.52,99.77-273.35,235.92-401,383.45-62.82-76.81-126.75-151.31-191.06-226.92Z" transform="translate(-656.18 -744.77)"/></svg>